<svg width="9" height="11" viewBox="0 0 9 11" fill="none" xmlns="http://www.w3.org/2000/svg">
<path d="M8.26646 7.02396C8.65776 7.89891 7.84856 8.70832 6.89009 8.70832H2.10992C1.15145 8.70832 0.342245 7.89891 0.733548 7.02396C1.18418 6.01635 1.75 5.00269 1.75 3.89891V3.66666C1.75 2.93731 2.03973 2.23784 2.55546 1.72211C3.07118 1.20639 3.77066 0.916656 4.5 0.916656C5.22935 0.916656 5.92882 1.20639 6.44455 1.72211C6.96027 2.23784 7.25 2.93731 7.25 3.66666V3.89891C7.25 5.00269 7.81583 6.01635 8.26646 7.02396ZM3.70553 9.83179C3.368 9.59297 3.63643 9.16666 4.04991 9.16666H4.9501C5.36357 9.16666 5.632 9.59297 5.29448 9.83179C5.06217 9.99617 4.78459 10.0844 4.5 10.0844C4.21542 10.0844 3.93784 9.99617 3.70553 9.83179Z" fill="white"/>
</svg>
